<svg id="a4e2fcf6-b0f6-4678-a889-6d8504c9e301" data-name="a734c1fe-719f-49bb-8ac9-ee5e84e771ef" xmlns="http://www.w3.org/2000/svg" viewBox="0 0 48 48"><path d="M16,27.34a1.84,1.84,0,0,0,.51-3.61V17.86h7v5.88A1.86,1.86,0,1,0,25.8,25a1.83,1.83,0,0,0-1.29-1.29V17.85h7.3a1.4,1.4,0,0,0,1.4-1.4h0V11a1.86,1.86,0,1,0-2.29-1.29A1.83,1.83,0,0,0,32.21,11v5.45a.4.4,0,0,1-.4.4h-7.3V11a1.86,1.86,0,1,0-2.29-1.29A1.83,1.83,0,0,0,23.51,11v5.86h-7V12.67h-1l-.06,11.07a1.84,1.84,0,0,0,.55,3.6Zm15.88-18a.85.85,0,0,1,1.7,0,.84.84,0,1,1-1.67-.05h0Zm-8.69,0a.85.85,0,1,1,1.69-.18.54.54,0,0,1,0,.18.85.85,0,1,1-1.69.18A.54.54,0,0,1,23.19,9.34ZM24,24.69a.85.85,0,0,1,.85.85h0a.85.85,0,0,1-.84.84h0a.85.85,0,0,1-.85-.85h0a.85.85,0,0,1,.84-.84Zm-7.95,0a.83.83,0,0,1,.84.82v0a.85.85,0,0,1-.85.85h0a.85.85,0,1,1,0-1.7Zm20.51,5.74H10A.3.3,0,0,0,10,31h5.56a.61.61,0,0,0,0,.19v3.5H13.8a1.39,1.39,0,0,0-1,.43,1.36,1.36,0,0,0-.36,1l.39,5.23a1.38,1.38,0,0,0,1.37,1.28h0l3.8-.05a1.38,1.38,0,0,0,1.35-1.25l.47-5.17a1.36,1.36,0,0,0-1.24-1.48H16.51v-3.5a.61.61,0,0,0,0-.19h13.2a.61.61,0,0,0,0,.19v3.42H28A1.38,1.38,0,0,0,26.63,36v8.69A1.47,1.47,0,0,0,28,46.15H30.3A1.49,1.49,0,0,0,31.66,45l1.75-8.68a1.4,1.4,0,0,0-.29-1.15,1.38,1.38,0,0,0-1.07-.5H30.62V31.17a.61.61,0,0,0,0-.19h6a.3.3,0,0,0,.24-.35.3.3,0,0,0-.24-.24Z" fill="#494949"/><path d="M14.55,6.81h3.24a1.73,1.73,0,0,1,1.72,1.73,1.61,1.61,0,0,1,0,.31l-.35,1.88a2.59,2.59,0,0,1-2.56,2.11h-.8a2.6,2.6,0,0,1-2.52-2.06l-.4-1.91a1.73,1.73,0,0,1,1.34-2Z" fill="#00b8a5"/><path d="M18.71,35.78a.38.38,0,0,1,.1.29l-.47,5.17a.38.38,0,0,1-.38.35l-3.76.07h0a.4.4,0,0,1-.39-.36l-.39-5.23a.36.36,0,0,1,.11-.29.37.37,0,0,1,.28-.13h4.63A.37.37,0,0,1,18.71,35.78Zm13.69-.06a.42.42,0,0,1,.08.33l-1.75,8.67a.4.4,0,0,1-.39.32H28.05a.38.38,0,0,1-.39-.39h0V36a.38.38,0,0,1,.38-.4H32.1A.38.38,0,0,1,32.4,35.72ZM14.54,7.81h-.16a.72.72,0,0,0-.55.86h0l.39,1.91a1.6,1.6,0,0,0,1.55,1.26h.81a1.61,1.61,0,0,0,1.57-1.3l.35-1.88V8.53a.73.73,0,0,0-.72-.73Z" fill="#fff"/></svg>